<svg width="166" height="288" viewBox="0 0 166 288" fill="none" xmlns="http://www.w3.org/2000/svg">
<path d="M80.2994 288C114.731 288 142.644 283.299 142.644 277.5C142.644 271.701 114.731 267 80.2994 267C45.8676 267 17.9551 271.701 17.9551 277.5C17.9551 283.299 45.8676 288 80.2994 288Z" fill="#2D3D8B"/>
<path d="M83.0001 104.342C95.3661 104.342 105.391 95.1374 105.391 83.7835C105.391 72.4297 95.3661 63.2255 83.0001 63.2255C70.634 63.2255 60.6094 72.4297 60.6094 83.7835C60.6094 95.1374 70.634 104.342 83.0001 104.342Z" fill="#53C4BD"/>
<path d="M122.57 272.102C122.57 272.102 74.8931 291.303 41.114 272.49L41.4267 267.06L44.3375 216.635L47.09 168.925L50.3791 111.905H113.691L116.733 168.925L119.281 216.635L121.971 267.06L122.57 272.102Z" fill="#2D3D8B"/>
<path d="M122.57 272.102C122.57 272.102 78.7535 291.691 41.114 272.49L41.4267 267.06H121.971L122.57 272.102Z" fill="#53C4BD"/>
<path d="M119.281 216.635H44.3375L47.09 168.925H116.733L119.281 216.635Z" fill="#53C4BD"/>
<path d="M117.551 105.699H46.5186V113.457H117.551V105.699Z" fill="#2D3D8B"/>
<path d="M117.551 79.7107H46.5186V87.4684H117.551V79.7107Z" fill="#2D3D8B"/>
<path d="M56.9419 87.4684H52.6954V107.639H56.9419V87.4684Z" fill="#2D3D8B"/>
<path d="M68.1373 87.4684H63.8907V107.639H68.1373V87.4684Z" fill="#2D3D8B"/>
<path d="M79.3326 87.4684H75.0861V107.639H79.3326V87.4684Z" fill="#2D3D8B"/>
<path d="M90.5279 87.4684H86.2814V107.639H90.5279V87.4684Z" fill="#2D3D8B"/>
<path d="M101.723 87.4684H97.4767V107.639H101.723V87.4684Z" fill="#2D3D8B"/>
<path d="M68.1373 56.6314H63.8907V83.2017H68.1373V56.6314Z" fill="#2D3D8B"/>
<path d="M79.3326 56.6314H75.0861V83.2017H79.3326V56.6314Z" fill="#2D3D8B"/>
<path d="M90.5279 56.6314H86.2814V83.2017H90.5279V56.6314Z" fill="#2D3D8B"/>
<path d="M101.723 56.6314H97.4767V83.2017H101.723V56.6314Z" fill="#2D3D8B"/>
<path d="M112.919 87.4684H108.672V107.639H112.919V87.4684Z" fill="#2D3D8B"/>
<path d="M57.135 59.7345H52.8884V83.3956H57.135V59.7345Z" fill="#2D3D8B"/>
<path d="M113.112 59.7345H108.865V83.3956H113.112V59.7345Z" fill="#2D3D8B"/>
<path d="M117.744 64.1952H46.7117V40.922L82.228 12.0245L117.744 40.922V64.1952Z" fill="#2D3D8B"/>
<path opacity="0.3" d="M83 143.4C115.982 143.4 142.72 116.535 142.72 83.3956C142.72 50.2562 115.982 23.3914 83 23.3914C50.0179 23.3914 23.2805 50.2562 23.2805 83.3956C23.2805 116.535 50.0179 143.4 83 143.4Z" fill="#53C4BD"/>
<path opacity="0.3" d="M83 166.791C128.84 166.791 166 129.454 166 83.3956C166 37.3375 128.84 0 83 0C37.1604 0 0 37.3375 0 83.3956C0 129.454 37.1604 166.791 83 166.791Z" fill="#53C4BD"/>
</svg>
